<?xml version="1.0" standalone="no"?>
<!DOCTYPE svg PUBLIC "-//W3C//DTD SVG 20010904//EN"
 "http://www.w3.org/TR/2001/REC-SVG-20010904/DTD/svg10.dtd">
<svg version="1.0" xmlns="http://www.w3.org/2000/svg"
 width="601.000000pt" height="601.000000pt" viewBox="0 0 601.000000 601.000000"
 preserveAspectRatio="xMidYMid meet">
<metadata>
Created by potrace 1.11, written by Peter Selinger 2001-2013
</metadata>
<g transform="translate(0.000000,601.000000) scale(0.100000,-0.100000)"
fill="#000000" stroke="none">
<path d="M1745 5710 l-290 -290 775 -775 775 -775 770 770 c424 423 771 774
773 778 1 5 -127 138 -285 296 l-287 287 -484 -484 -484 -484 -485 483 c-266
266 -485 484 -486 484 -1 0 -133 -130 -292 -290z"/>
<path d="M296 4261 l-290 -290 482 -482 c265 -265 482 -485 482 -490 0 -4 -10
-16 -22 -27 -13 -10 -229 -226 -482 -479 l-458 -460 290 -290 290 -290 776
775 775 776 -772 773 c-425 425 -774 773 -777 773 -3 0 -135 -130 -294 -289z"/>
<path d="M4651 3781 c-421 -422 -766 -771 -768 -776 -1 -6 345 -358 770 -782
l773 -773 287 288 c158 158 287 291 287 295 0 5 -216 225 -481 489 l-481 481
481 481 c265 265 481 484 481 488 0 9 -571 578 -579 577 -3 -1 -350 -346 -770
-768z"/>
<path d="M2236 1364 c-422 -422 -768 -771 -769 -777 -1 -5 126 -139 283 -297
l285 -287 486 484 485 484 481 -480 c264 -265 484 -481 489 -481 12 0 574 562
574 574 0 10 -1533 1546 -1543 1546 -3 0 -350 -345 -771 -766z"/>
</g>
</svg>
